<svg width="190" height="40" viewBox="0 0 190 40" fill="none" xmlns="http://www.w3.org/2000/svg">
<path d="M7.91185 29H1.19594V11.5455H7.84367C9.63912 11.5455 11.1903 11.8949 12.4971 12.5938C13.8096 13.2869 14.8209 14.2869 15.5312 15.5938C16.2471 16.8949 16.605 18.4545 16.605 20.2727C16.605 22.0909 16.2499 23.6534 15.5397 24.9602C14.8295 26.2614 13.8238 27.2614 12.5226 27.9602C11.2215 28.6534 9.68457 29 7.91185 29ZM5.93457 24.9773H7.74139C8.60503 24.9773 9.34082 24.8381 9.94878 24.5597C10.5624 24.2812 11.0283 23.8011 11.3465 23.1193C11.6704 22.4375 11.8323 21.4886 11.8323 20.2727C11.8323 19.0568 11.6675 18.108 11.338 17.4261C11.0141 16.7443 10.5368 16.2642 9.90617 15.9858C9.28117 15.7074 8.51412 15.5682 7.60503 15.5682H5.93457V24.9773ZM24.4184 29.2386C23.0207 29.2386 21.8161 28.9716 20.8048 28.4375C19.7991 27.8977 19.0235 27.125 18.4781 26.1193C17.9383 25.108 17.6684 23.8977 17.6684 22.4886C17.6684 21.1364 17.9411 19.9545 18.4866 18.9432C19.032 17.9318 19.8019 17.1449 20.7963 16.5824C21.7906 16.0199 22.9639 15.7386 24.3161 15.7386C25.3048 15.7386 26.1997 15.892 27.0008 16.1989C27.8019 16.5057 28.4866 16.9517 29.0548 17.5369C29.623 18.1165 30.0605 18.821 30.3673 19.6506C30.6741 20.4801 30.8275 21.4148 30.8275 22.4545V23.5455H19.1343V20.9545H26.498C26.4923 20.5795 26.3957 20.25 26.2082 19.9659C26.0264 19.6761 25.7792 19.4517 25.4667 19.2926C25.1599 19.1278 24.8105 19.0455 24.4184 19.0455C24.0377 19.0455 23.6883 19.1278 23.3701 19.2926C23.0519 19.4517 22.7963 19.6733 22.6031 19.9574C22.4156 20.2415 22.3161 20.5739 22.3048 20.9545V23.75C22.3048 24.1705 22.3928 24.5455 22.569 24.875C22.7451 25.2045 22.998 25.4631 23.3275 25.6506C23.657 25.8381 24.0548 25.9318 24.5207 25.9318C24.8445 25.9318 25.14 25.8864 25.407 25.7955C25.6798 25.7045 25.9127 25.5739 26.1059 25.4034C26.2991 25.2273 26.4411 25.017 26.532 24.7727H30.8275C30.6798 25.6818 30.3303 26.4716 29.7792 27.142C29.2281 27.8068 28.498 28.3239 27.5889 28.6932C26.6855 29.0568 25.6286 29.2386 24.4184 29.2386ZM36.7318 11.5455V29H32.0272V11.5455H36.7318ZM42.0565 29.2045C41.2213 29.2045 40.4827 29.0682 39.8406 28.7955C39.2043 28.517 38.7043 28.0966 38.3406 27.5341C37.977 26.9716 37.7952 26.2557 37.7952 25.3864C37.7952 24.6705 37.9173 24.0597 38.1616 23.554C38.406 23.0426 38.7469 22.625 39.1844 22.3011C39.6219 21.9773 40.1304 21.7301 40.7099 21.5597C41.2952 21.3892 41.9259 21.2784 42.602 21.2273C43.3349 21.1705 43.923 21.1023 44.3662 21.0227C44.8151 20.9375 45.1389 20.821 45.3378 20.6733C45.5366 20.5199 45.6361 20.3182 45.6361 20.0682V20.0341C45.6361 19.6932 45.5054 19.4318 45.244 19.25C44.9827 19.0682 44.6474 18.9773 44.2384 18.9773C43.7895 18.9773 43.423 19.0767 43.1389 19.2756C42.8605 19.4687 42.6929 19.767 42.6361 20.1705H38.3065C38.3634 19.375 38.6162 18.642 39.0651 17.9716C39.5196 17.2955 40.1815 16.7557 41.0509 16.3523C41.9202 15.9432 43.0054 15.7386 44.3065 15.7386C45.244 15.7386 46.0849 15.8494 46.8293 16.071C47.5736 16.2869 48.2071 16.5909 48.7298 16.983C49.2526 17.3693 49.6503 17.8239 49.923 18.3466C50.2014 18.8636 50.3406 19.4261 50.3406 20.0341V29H45.9429V27.1591H45.8406C45.5793 27.6477 45.2611 28.0426 44.8861 28.3438C44.5168 28.6449 44.0935 28.8636 43.6162 29C43.1446 29.1364 42.6247 29.2045 42.0565 29.2045ZM43.5906 26.2386C43.9486 26.2386 44.2838 26.1648 44.5963 26.017C44.9145 25.8693 45.173 25.6562 45.3719 25.3778C45.5707 25.0994 45.6702 24.7614 45.6702 24.3636V23.2727C45.5452 23.3239 45.4116 23.3722 45.2696 23.4176C45.1332 23.4631 44.9855 23.5057 44.8264 23.5455C44.673 23.5852 44.5082 23.6222 44.3321 23.6562C44.1616 23.6903 43.9827 23.7216 43.7952 23.75C43.4315 23.8068 43.1332 23.9006 42.9003 24.0312C42.673 24.1562 42.5026 24.3125 42.3889 24.5C42.281 24.6818 42.227 24.8864 42.227 25.1136C42.227 25.4773 42.3548 25.7557 42.6105 25.9489C42.8662 26.142 43.1929 26.2386 43.5906 26.2386ZM51.8685 29V15.9091H56.3344V18.3977H56.4708C56.7435 17.5795 57.2094 16.9318 57.8685 16.4545C58.5276 15.9773 59.3117 15.7386 60.2208 15.7386C61.1412 15.7386 61.9338 15.983 62.5986 16.4716C63.2634 16.9545 63.6639 17.5966 63.8003 18.3977H63.9367C64.1583 17.5966 64.6299 16.9545 65.3514 16.4716C66.073 15.983 66.9196 15.7386 67.8912 15.7386C69.1469 15.7386 70.1639 16.142 70.9424 16.9489C71.7264 17.7557 72.1185 18.8295 72.1185 20.1705V29H67.4139V21.3636C67.4139 20.7898 67.2691 20.3409 66.9793 20.017C66.6895 19.6875 66.3003 19.5227 65.8117 19.5227C65.3287 19.5227 64.9452 19.6875 64.6611 20.017C64.3827 20.3409 64.2435 20.7898 64.2435 21.3636V29H59.7435V21.3636C59.7435 20.7898 59.5986 20.3409 59.3088 20.017C59.0191 19.6875 58.6299 19.5227 58.1412 19.5227C57.8174 19.5227 57.5389 19.5966 57.306 19.7443C57.073 19.892 56.8912 20.1051 56.7605 20.3835C56.6355 20.6562 56.573 20.983 56.573 21.3636V29H51.8685ZM73.6506 29V11.5455H78.3552V18.1932H78.4234C78.5938 17.75 78.8438 17.3437 79.1734 16.9744C79.5029 16.5994 79.912 16.3011 80.4006 16.0795C80.8893 15.8523 81.4574 15.7386 82.1052 15.7386C82.9688 15.7386 83.7898 15.9688 84.5682 16.429C85.3523 16.8892 85.9887 17.6136 86.4773 18.6023C86.9717 19.5909 87.2188 20.875 87.2188 22.4545C87.2188 23.9659 86.983 25.2187 86.5114 26.2131C86.0455 27.2074 85.4205 27.9489 84.6364 28.4375C83.858 28.9261 83.0029 29.1705 82.0711 29.1705C81.4574 29.1705 80.9091 29.071 80.4262 28.8722C79.9489 28.6676 79.5398 28.392 79.1989 28.0455C78.8637 27.6932 78.6052 27.2955 78.4234 26.8523H78.3211V29H73.6506ZM78.2529 22.4545C78.2529 23.0909 78.3353 23.642 78.5001 24.108C78.6705 24.5682 78.9091 24.9261 79.216 25.1818C79.5285 25.4318 79.9006 25.5568 80.3324 25.5568C80.7643 25.5568 81.1307 25.4347 81.4319 25.1903C81.7387 24.9403 81.9717 24.5852 82.1307 24.125C82.2955 23.6591 82.3779 23.1023 82.3779 22.4545C82.3779 21.8068 82.2955 21.2528 82.1307 20.7926C81.9717 20.3267 81.7387 19.9716 81.4319 19.7273C81.1307 19.4773 80.7643 19.3523 80.3324 19.3523C79.9006 19.3523 79.5285 19.4773 79.216 19.7273C78.9091 19.9716 78.6705 20.3267 78.5001 20.7926C78.3353 21.2528 78.2529 21.8068 78.2529 22.4545ZM88.4676 29V15.9091H93.0357V18.3977H93.1721C93.4107 17.4773 93.7886 16.804 94.3056 16.3778C94.8284 15.9517 95.4391 15.7386 96.138 15.7386C96.3426 15.7386 96.5443 15.7557 96.7431 15.7898C96.9477 15.8182 97.1437 15.8608 97.3312 15.9176V19.9318C97.0982 19.8523 96.8113 19.7926 96.4704 19.7528C96.1295 19.7131 95.8369 19.6932 95.5926 19.6932C95.1323 19.6932 94.7176 19.7983 94.3482 20.0085C93.9846 20.2131 93.6977 20.5028 93.4874 20.8778C93.2772 21.2472 93.1721 21.6818 93.1721 22.1818V29H88.4676ZM103.677 29.2386C102.279 29.2386 101.074 28.9716 100.063 28.4375C99.0572 27.8977 98.2816 27.125 97.7362 26.1193C97.1964 25.108 96.9265 23.8977 96.9265 22.4886C96.9265 21.1364 97.1993 19.9545 97.7447 18.9432C98.2902 17.9318 99.0601 17.1449 100.054 16.5824C101.049 16.0199 102.222 15.7386 103.574 15.7386C104.563 15.7386 105.458 15.892 106.259 16.1989C107.06 16.5057 107.745 16.9517 108.313 17.5369C108.881 18.1165 109.319 18.821 109.625 19.6506C109.932 20.4801 110.086 21.4148 110.086 22.4545V23.5455H98.3924V20.9545H105.756C105.75 20.5795 105.654 20.25 105.466 19.9659C105.284 19.6761 105.037 19.4517 104.725 19.2926C104.418 19.1278 104.069 19.0455 103.677 19.0455C103.296 19.0455 102.946 19.1278 102.628 19.2926C102.31 19.4517 102.054 19.6733 101.861 19.9574C101.674 20.2415 101.574 20.5739 101.563 20.9545V23.75C101.563 24.1705 101.651 24.5455 101.827 24.875C102.003 25.2045 102.256 25.4631 102.586 25.6506C102.915 25.8381 103.313 25.9318 103.779 25.9318C104.103 25.9318 104.398 25.8864 104.665 25.7955C104.938 25.7045 105.171 25.5739 105.364 25.4034C105.557 25.2273 105.699 25.017 105.79 24.7727H110.086C109.938 25.6818 109.588 26.4716 109.037 27.142C108.486 27.8068 107.756 28.3239 106.847 28.6932C105.944 29.0568 104.887 29.2386 103.677 29.2386ZM119.813 29H114.699L120.46 11.5455H126.938L132.699 29H127.585L123.767 16.3523H123.631L119.813 29ZM118.858 22.1136H128.472V25.6591H118.858V22.1136ZM137.436 29.1705C136.504 29.1705 135.646 28.9261 134.862 28.4375C134.083 27.9489 133.458 27.2074 132.987 26.2131C132.521 25.2187 132.288 23.9659 132.288 22.4545C132.288 20.875 132.532 19.5909 133.021 18.6023C133.515 17.6136 134.151 16.8892 134.93 16.429C135.714 15.9688 136.538 15.7386 137.401 15.7386C138.049 15.7386 138.617 15.8523 139.106 16.0795C139.595 16.3011 140.004 16.5994 140.333 16.9744C140.663 17.3437 140.913 17.75 141.083 18.1932H141.151V11.5455H145.856V29H141.186V26.8523H141.083C140.901 27.2955 140.64 27.6932 140.299 28.0455C139.964 28.392 139.555 28.6676 139.072 28.8722C138.595 29.071 138.049 29.1705 137.436 29.1705ZM139.174 25.5568C139.606 25.5568 139.975 25.4318 140.282 25.1818C140.595 24.9261 140.833 24.5682 140.998 24.108C141.169 23.642 141.254 23.0909 141.254 22.4545C141.254 21.8068 141.169 21.2528 140.998 20.7926C140.833 20.3267 140.595 19.9716 140.282 19.7273C139.975 19.4773 139.606 19.3523 139.174 19.3523C138.742 19.3523 138.373 19.4773 138.066 19.7273C137.765 19.9716 137.532 20.3267 137.367 20.7926C137.208 21.2528 137.129 21.8068 137.129 22.4545C137.129 23.1023 137.208 23.6591 137.367 24.125C137.532 24.5852 137.765 24.9403 138.066 25.1903C138.373 25.4347 138.742 25.5568 139.174 25.5568ZM147.446 29V15.9091H151.912V18.3977H152.048C152.321 17.5795 152.787 16.9318 153.446 16.4545C154.105 15.9773 154.889 15.7386 155.798 15.7386C156.718 15.7386 157.511 15.983 158.176 16.4716C158.841 16.9545 159.241 17.5966 159.378 18.3977H159.514C159.735 17.5966 160.207 16.9545 160.929 16.4716C161.65 15.983 162.497 15.7386 163.468 15.7386C164.724 15.7386 165.741 16.142 166.52 16.9489C167.304 17.7557 167.696 18.8295 167.696 20.1705V29H162.991V21.3636C162.991 20.7898 162.846 20.3409 162.556 20.017C162.267 19.6875 161.878 19.5227 161.389 19.5227C160.906 19.5227 160.522 19.6875 160.238 20.017C159.96 20.3409 159.821 20.7898 159.821 21.3636V29H155.321V21.3636C155.321 20.7898 155.176 20.3409 154.886 20.017C154.596 19.6875 154.207 19.5227 153.718 19.5227C153.395 19.5227 153.116 19.5966 152.883 19.7443C152.65 19.892 152.468 20.1051 152.338 20.3835C152.213 20.6562 152.15 20.983 152.15 21.3636V29H147.446ZM169.296 29V15.9091H174.001V29H169.296ZM171.648 14.5455C171.012 14.5455 170.466 14.3352 170.012 13.9148C169.557 13.4943 169.33 12.9886 169.33 12.3977C169.33 11.8068 169.557 11.3011 170.012 10.8807C170.466 10.4602 171.012 10.25 171.648 10.25C172.29 10.25 172.836 10.4602 173.285 10.8807C173.739 11.3011 173.966 11.8068 173.966 12.3977C173.966 12.9886 173.739 13.4943 173.285 13.9148C172.836 14.3352 172.29 14.5455 171.648 14.5455ZM180.382 21.6364V29H175.678V15.9091H180.143V18.3977H180.28C180.564 17.5682 181.064 16.9176 181.78 16.446C182.501 15.9744 183.342 15.7386 184.303 15.7386C185.229 15.7386 186.033 15.9517 186.714 16.3778C187.402 16.7983 187.933 17.3778 188.308 18.1165C188.689 18.8551 188.876 19.6989 188.871 20.6477V29H184.166V21.6364C184.172 20.9886 184.007 20.4801 183.672 20.1108C183.342 19.7415 182.882 19.5568 182.291 19.5568C181.905 19.5568 181.567 19.642 181.277 19.8125C180.993 19.9773 180.774 20.2159 180.621 20.5284C180.467 20.8352 180.388 21.2045 180.382 21.6364Z" fill="white"/>
</svg>
